<mxfile host="65bd71144e">
    <diagram id="fhepWHObSpDl6eMhbpWo" name="Page-1">
        <mxGraphModel dx="566" dy="591" grid="1" gridSize="10" guides="1" tooltips="1" connect="1" arrows="1" fold="1" page="1" pageScale="1" pageWidth="850" pageHeight="1100" math="0" shadow="0">
            <root>
                <mxCell id="0"/>
                <mxCell id="1" parent="0"/>
                <mxCell id="2" value="Системы координат робота" style="rounded=1;whiteSpace=wrap;html=1;fillColor=#e1d5e7;strokeColor=#9673a6;verticalAlign=top;fontSize=14;" vertex="1" parent="1">
                    <mxGeometry x="154" y="290" width="520" height="255" as="geometry"/>
                </mxCell>
                <mxCell id="3" value="&lt;span style=&quot;color: rgb(0 , 0 , 0) ; font-family: &amp;quot;helvetica&amp;quot; ; font-size: 14px ; font-style: normal ; font-weight: 400 ; letter-spacing: normal ; text-indent: 0px ; text-transform: none ; word-spacing: 0px ; background-color: rgb(248 , 249 , 250) ; display: inline ; float: none&quot;&gt;Карта&lt;/span&gt;" style="text;whiteSpace=wrap;html=1;strokeColor=#000000;rounded=1;fillColor=#ffffff;align=center;fontSize=14;" vertex="1" parent="1">
                    <mxGeometry x="174" y="325" width="80" height="30" as="geometry"/>
                </mxCell>
                <mxCell id="4" value="&lt;span style=&quot;color: rgb(0 , 0 , 0) ; font-family: &amp;quot;helvetica&amp;quot; ; font-size: 14px ; font-style: normal ; font-weight: 400 ; letter-spacing: normal ; text-indent: 0px ; text-transform: none ; word-spacing: 0px ; background-color: rgb(248 , 249 , 250) ; display: inline ; float: none&quot;&gt;Одометрия&lt;/span&gt;" style="text;whiteSpace=wrap;html=1;strokeColor=#000000;rounded=1;fillColor=#ffffff;align=center;fontSize=14;" vertex="1" parent="1">
                    <mxGeometry x="254" y="375" width="120" height="30" as="geometry"/>
                </mxCell>
                <mxCell id="5" value="&lt;span style=&quot;color: rgb(0 , 0 , 0) ; font-family: &amp;quot;helvetica&amp;quot; ; font-size: 14px ; font-style: normal ; font-weight: 400 ; letter-spacing: normal ; text-indent: 0px ; text-transform: none ; word-spacing: 0px ; background-color: rgb(248 , 249 , 250) ; display: inline ; float: none&quot;&gt;База робота&lt;/span&gt;" style="text;whiteSpace=wrap;html=1;strokeColor=#000000;rounded=1;fillColor=#ffffff;align=center;fontSize=14;" vertex="1" parent="1">
                    <mxGeometry x="344" y="425" width="120" height="30" as="geometry"/>
                </mxCell>
                <mxCell id="6" value="&lt;span style=&quot;color: rgb(0 , 0 , 0) ; font-family: &amp;quot;helvetica&amp;quot; ; font-size: 14px ; font-style: normal ; font-weight: 400 ; letter-spacing: normal ; text-indent: 0px ; text-transform: none ; word-spacing: 0px ; background-color: rgb(248 , 249 , 250) ; display: inline ; float: none&quot;&gt;Камеры&lt;/span&gt;" style="text;whiteSpace=wrap;html=1;strokeColor=#000000;rounded=1;fillColor=#ffffff;align=center;fontSize=14;" vertex="1" parent="1">
                    <mxGeometry x="474" y="325" width="120" height="30" as="geometry"/>
                </mxCell>
                <mxCell id="7" value="&lt;span style=&quot;color: rgb(0 , 0 , 0) ; font-family: &amp;quot;helvetica&amp;quot; ; font-size: 14px ; font-style: normal ; font-weight: 400 ; letter-spacing: normal ; text-indent: 0px ; text-transform: none ; word-spacing: 0px ; background-color: rgb(248 , 249 , 250) ; display: inline ; float: none&quot;&gt;GPS&lt;/span&gt;" style="text;whiteSpace=wrap;html=1;strokeColor=#000000;rounded=1;fillColor=#ffffff;align=center;fontSize=14;" vertex="1" parent="1">
                    <mxGeometry x="514" y="375" width="120" height="30" as="geometry"/>
                </mxCell>
                <mxCell id="8" value="&lt;font face=&quot;helvetica&quot; style=&quot;font-size: 14px;&quot;&gt;&lt;span style=&quot;font-size: 14px&quot;&gt;IMU&lt;/span&gt;&lt;/font&gt;" style="text;whiteSpace=wrap;html=1;strokeColor=#000000;rounded=1;fillColor=#ffffff;align=center;fontSize=14;fontColor=#000000;" vertex="1" parent="1">
                    <mxGeometry x="524" y="425" width="120" height="30" as="geometry"/>
                </mxCell>
                <mxCell id="9" value="&lt;font face=&quot;helvetica&quot; style=&quot;font-size: 14px;&quot;&gt;&lt;span style=&quot;font-size: 14px&quot;&gt;RGBD камера&lt;/span&gt;&lt;/font&gt;" style="text;whiteSpace=wrap;html=1;strokeColor=#000000;rounded=1;fillColor=#ffffff;align=center;fontSize=14;fontColor=#000000;" vertex="1" parent="1">
                    <mxGeometry x="504" y="475" width="120" height="30" as="geometry"/>
                </mxCell>
                <mxCell id="10" value="" style="endArrow=classic;startArrow=classic;html=1;fontSize=14;" edge="1" parent="1" source="3" target="4">
                    <mxGeometry width="50" height="50" relative="1" as="geometry">
                        <mxPoint x="384" y="-85" as="sourcePoint"/>
                        <mxPoint x="464" y="-85" as="targetPoint"/>
                        <Array as="points">
                            <mxPoint x="214" y="390"/>
                        </Array>
                    </mxGeometry>
                </mxCell>
                <mxCell id="11" value="" style="endArrow=classic;startArrow=classic;html=1;fontSize=14;" edge="1" parent="1" source="4" target="5">
                    <mxGeometry width="50" height="50" relative="1" as="geometry">
                        <mxPoint x="224" y="364.9999999999998" as="sourcePoint"/>
                        <mxPoint x="264" y="399.9999999999998" as="targetPoint"/>
                        <Array as="points">
                            <mxPoint x="314" y="440"/>
                        </Array>
                    </mxGeometry>
                </mxCell>
                <mxCell id="12" value="" style="endArrow=classic;startArrow=classic;html=1;fontSize=14;" edge="1" parent="1" source="6" target="5">
                    <mxGeometry width="50" height="50" relative="1" as="geometry">
                        <mxPoint x="514" y="405" as="sourcePoint"/>
                        <mxPoint x="434" y="405" as="targetPoint"/>
                    </mxGeometry>
                </mxCell>
                <mxCell id="13" value="" style="endArrow=classic;startArrow=classic;html=1;fontSize=14;" edge="1" parent="1" source="7" target="5">
                    <mxGeometry width="50" height="50" relative="1" as="geometry">
                        <mxPoint x="567" y="365" as="sourcePoint"/>
                        <mxPoint x="441" y="435" as="targetPoint"/>
                    </mxGeometry>
                </mxCell>
                <mxCell id="14" value="" style="endArrow=classic;startArrow=classic;html=1;fontSize=14;" edge="1" parent="1" source="8" target="5">
                    <mxGeometry width="50" height="50" relative="1" as="geometry">
                        <mxPoint x="540" y="415" as="sourcePoint"/>
                        <mxPoint x="468" y="435" as="targetPoint"/>
                    </mxGeometry>
                </mxCell>
                <mxCell id="15" value="" style="endArrow=classic;startArrow=classic;html=1;fontSize=14;" edge="1" parent="1" source="9" target="5">
                    <mxGeometry width="50" height="50" relative="1" as="geometry">
                        <mxPoint x="534" y="450" as="sourcePoint"/>
                        <mxPoint x="474" y="450" as="targetPoint"/>
                    </mxGeometry>
                </mxCell>
            </root>
        </mxGraphModel>
    </diagram>
</mxfile>